<mxfile host="app.diagrams.net" modified="2024-02-22T08:11:37.493Z" agent="Mozilla/5.0 (Windows NT 10.0; Win64; x64) AppleWebKit/537.36 (KHTML, like Gecko) Chrome/121.0.0.0 Safari/537.36 Edg/121.0.0.0" version="22.1.21" etag="3HhvCXVJWb2HU_4peO_N" type="github">
  <diagram name="第 1 页" id="M1IA6LVbxlvQD2j0tbdd">
    <mxGraphModel>
      <root>
        <mxCell id="0" />
        <mxCell id="1" parent="0" />
      </root>
    </mxGraphModel>
  </diagram>
</mxfile>
